<svg aria-hidden="true" style="position:absolute;width:0;height:0" xmlns="http://www.w3.org/2000/svg" overflow="hidden">
    <defs>
        <symbol id="icon-heart-outline" viewBox="0 0 24 24">
            <path
                d="M12 20a1 1 0 01-.561-.172c-.225-.151-5.508-3.73-7.146-5.371C2.462 12.626 2.25 10.68 2.25 9.375A5.38 5.38 0 017.625 4c1.802 0 3.398.891 4.375 2.256A5.373 5.373 0 0116.375 4a5.38 5.38 0 015.375 5.375c0 1.305-.212 3.251-2.043 5.082-1.641 1.641-6.923 5.22-7.146 5.371A1 1 0 0112 20zM7.625 6A3.379 3.379 0 004.25 9.375c0 1.093.173 2.384 1.457 3.668 1.212 1.212 4.883 3.775 6.293 4.746 1.41-.971 5.081-3.534 6.293-4.746 1.284-1.284 1.457-2.575 1.457-3.668C19.75 7.514 18.236 6 16.375 6S13 7.514 13 9.375a1 1 0 11-2 0A3.379 3.379 0 007.625 6z" />
        </symbol>
        <symbol id="icon-arrow-left" viewBox="0 0 32 32">
            <path d="M1 16l15 15v-9h16v-12h-16v-9z"></path>
        </symbol>
        <symbol id="icon-cancel-circle" viewBox="0 0 32 32">
            <path
                d="M16 0c-8.837 0-16 7.163-16 16s7.163 16 16 16 16-7.163 16-16-7.163-16-16-16zM16 29c-7.18 0-13-5.82-13-13s5.82-13 13-13 13 5.82 13 13-5.82 13-13 13z">
            </path>
            <path d="M21 8l-5 5-5-5-3 3 5 5-5 5 3 3 5-5 5 5 3-3-5-5 5-5z"></path>
        </symbol>
        <symbol id="icon-th-menu-outline" viewBox="0 0 24 24">
            <path
                d="M19 18c.55 0 1 .45 1 1s-.45 1-1 1H5c-.55 0-1-.45-1-1s.45-1 1-1h14zm0-2H5c-1.654 0-3 1.346-3 3s1.346 3 3 3h14c1.654 0 3-1.346 3-3s-1.346-3-3-3zM19 11c.55 0 1 .45 1 1s-.45 1-1 1H5c-.55 0-1-.45-1-1s.45-1 1-1h14zm0-2H5c-1.654 0-3 1.346-3 3s1.346 3 3 3h14c1.654 0 3-1.346 3-3s-1.346-3-3-3zM19 4c.55 0 1 .45 1 1s-.45 1-1 1H5c-.55 0-1-.45-1-1s.45-1 1-1h14zm0-2H5C3.346 2 2 3.346 2 5s1.346 3 3 3h14c1.654 0 3-1.346 3-3s-1.346-3-3-3z" />
        </symbol>
        <symbol id="icon-cross" viewBox="0 0 32 32">
            <path
                d="M31.708 25.708c-0-0-0-0-0-0l-9.708-9.708 9.708-9.708c0-0 0-0 0-0 0.105-0.105 0.18-0.227 0.229-0.357 0.133-0.356 0.057-0.771-0.229-1.057l-4.586-4.586c-0.286-0.286-0.702-0.361-1.057-0.229-0.13 0.048-0.252 0.124-0.357 0.228 0 0-0 0-0 0l-9.708 9.708-9.708-9.708c-0-0-0-0-0-0-0.105-0.104-0.227-0.18-0.357-0.228-0.356-0.133-0.771-0.057-1.057 0.229l-4.586 4.586c-0.286 0.286-0.361 0.702-0.229 1.057 0.049 0.13 0.124 0.252 0.229 0.357 0 0 0 0 0 0l9.708 9.708-9.708 9.708c-0 0-0 0-0 0-0.104 0.105-0.18 0.227-0.229 0.357-0.133 0.355-0.057 0.771 0.229 1.057l4.586 4.586c0.286 0.286 0.702 0.361 1.057 0.229 0.13-0.049 0.252-0.124 0.357-0.229 0-0 0-0 0-0l9.708-9.708 9.708 9.708c0 0 0 0 0 0 0.105 0.105 0.227 0.18 0.357 0.229 0.356 0.133 0.771 0.057 1.057-0.229l4.586-4.586c0.286-0.286 0.362-0.702 0.229-1.057-0.049-0.13-0.124-0.252-0.229-0.357z">
            </path>
        </symbol>
        <symbol id="icon-arrow-right" viewBox="0 0 32 32">
            <path d="M31 16l-15-15v9h-16v12h16v9z"></path>
        </symbol>
        <symbol id="icon-times-outline" viewBox="0 0 24 24">
            <path
                d="M16 19a2.98 2.98 0 01-2.122-.879L12 16.242l-1.879 1.879c-1.133 1.133-3.109 1.133-4.243 0C5.312 17.555 5 16.801 5 16s.312-1.555.879-2.122L7.757 12l-1.878-1.879C5.312 9.555 5 8.801 5 8s.312-1.555.879-2.122c1.133-1.132 3.109-1.133 4.243.001L12 7.758l1.879-1.879c1.133-1.133 3.109-1.133 4.243 0C18.688 6.445 19 7.199 19 8s-.312 1.555-.879 2.122L16.243 12l1.878 1.879c.567.566.879 1.32.879 2.121s-.312 1.555-.879 2.122A2.98 2.98 0 0116 19zm-4-5.586l3.293 3.293a1.024 1.024 0 001.414 0c.189-.189.293-.439.293-.707s-.104-.518-.293-.707L13.415 12l3.292-3.293c.189-.189.293-.44.293-.707s-.104-.518-.293-.707a1.023 1.023 0 00-1.414-.001L12 10.586 8.707 7.293a1.024 1.024 0 00-1.414 0C7.104 7.482 7 7.733 7 8s.104.518.293.707L10.585 12l-3.292 3.293C7.104 15.482 7 15.732 7 16s.104.518.293.707a1.023 1.023 0 001.414.001L12 13.414z" />
        </symbol>
        <symbol id="icon-minus-outline" viewBox="0 0 24 24">
            <path
                d="M18 16H6c-1.654 0-3-1.346-3-3s1.346-3 3-3h12c1.654 0 3 1.346 3 3s-1.346 3-3 3zM6 12c-.551 0-1 .449-1 1s.449 1 1 1h12c.551 0 1-.449 1-1s-.449-1-1-1H6z" />
        </symbol>
        <symbol id="icon-thumbs-o-up" viewBox="0 0 24 28">
            <path
                d="M4 21c0-.547-.453-1-1-1s-1 .453-1 1 .453 1 1 1 1-.453 1-1zm18-9c0-1.062-.953-2-2-2h-5.5c0-1.828 1.5-3.156 1.5-5 0-1.828-.359-3-2.5-3-1 1.016-.484 3.406-2 5-.438.453-.812.938-1.203 1.422C9.594 9.328 7.735 12 6.5 12H6v10h.5c.875 0 2.312.562 3.156.859C11.375 23.453 13.156 24 15 24h1.891c1.766 0 3-.703 3-2.609 0-.297-.031-.594-.078-.875.656-.359 1.016-1.25 1.016-1.969 0-.375-.094-.75-.281-1.078.531-.5.828-1.125.828-1.859 0-.5-.219-1.234-.547-1.609.734-.016 1.172-1.422 1.172-2zm2-.016a4.6 4.6 0 01-.766 2.547c.094.344.141.719.141 1.078 0 .781-.203 1.563-.594 2.25.031.219.047.453.047.672 0 1-.328 2-.938 2.781.031 2.953-1.984 4.688-4.875 4.688h-2.016c-2.219 0-4.281-.656-6.344-1.375C8.202 24.469 6.936 24 6.499 24h-4.5c-1.109 0-2-.891-2-2V12c0-1.109.891-2 2-2H6.28c.609-.406 1.672-1.813 2.141-2.422a28.878 28.878 0 011.672-2c.938-1 .438-3.469 2-5A2.042 2.042 0 0113.499 0c1.625 0 3.187.578 3.953 2.094.484.953.547 1.859.547 2.906 0 1.094-.281 2.031-.75 3h2.75c2.156 0 4 1.828 4 3.984z" />
        </symbol>
        <symbol id="icon-thumbs-up" viewBox="0 0 25 28">
            <path
                d="M4 21c0-.547-.453-1-1-1-.562 0-1 .453-1 1 0 .562.438 1 1 1 .547 0 1-.438 1-1zm2.5-8v10c0 .547-.453 1-1 1H1c-.547 0-1-.453-1-1V13c0-.547.453-1 1-1h4.5c.547 0 1 .453 1 1zM25 13c0 .828-.328 1.719-.859 2.328.172.5.234.969.234 1.188a3.303 3.303 0 01-.672 2.141 3.301 3.301 0 010 1.828 3.193 3.193 0 01-.844 1.469c.094 1.172-.172 2.125-.766 2.828-.672.797-1.703 1.203-3.078 1.219h-2.016c-2.234 0-4.344-.734-6.031-1.313-.984-.344-1.922-.672-2.469-.688-.531-.016-1-.453-1-1V12.984c0-.516.438-.953.953-1 .578-.047 2.078-1.906 2.766-2.812.562-.719 1.094-1.391 1.578-1.875.609-.609.781-1.547.969-2.453.172-.922.359-1.891 1.031-2.547A.996.996 0 0115.499 2c3.5 0 3.5 2.797 3.5 4 0 1.281-.453 2.188-.875 3-.172.344-.328.5-.453 1h4.328c1.625 0 3 1.375 3 3z" />
        </symbol>
        <symbol id="icon-instagram" viewBox="0 0 28 28">
            <path fill="var(--color1, #e4405f)"
                d="M14 0c-3.803 0-4.278.018-5.771.084-1.491.07-2.506.304-3.399.651-.921.357-1.702.836-2.48 1.615S1.091 3.909.735 4.83C.389 5.722.153 6.737.084 8.229.014 9.722 0 10.197 0 14s.018 4.278.084 5.771c.07 1.49.304 2.506.651 3.399a6.87 6.87 0 001.615 2.48 6.852 6.852 0 002.48 1.615c.894.345 1.909.582 3.399.651 1.493.07 1.968.084 5.771.084s4.278-.017 5.771-.084c1.49-.07 2.506-.306 3.399-.651a6.882 6.882 0 002.48-1.615 6.844 6.844 0 001.615-2.48c.345-.893.582-1.909.651-3.399.07-1.493.084-1.968.084-5.771s-.017-4.278-.084-5.771c-.07-1.49-.306-2.507-.651-3.399a6.874 6.874 0 00-1.615-2.48A6.83 6.83 0 0023.17.735c-.893-.346-1.909-.582-3.399-.651C18.278.014 17.803 0 14 0zm0 2.52c3.737 0 4.183.019 5.658.083 1.365.064 2.106.29 2.598.484.656.253 1.12.556 1.612 1.045.489.49.792.956 1.045 1.611.191.492.42 1.233.482 2.598.066 1.477.082 1.92.082 5.658s-.017 4.183-.086 5.658c-.071 1.365-.299 2.106-.491 2.598a4.434 4.434 0 01-1.049 1.612 4.361 4.361 0 01-1.61 1.045c-.49.191-1.242.42-2.608.482-1.486.066-1.924.082-5.669.082-3.746 0-4.184-.017-5.669-.086-1.366-.071-2.119-.299-2.609-.491a4.332 4.332 0 01-1.609-1.049 4.252 4.252 0 01-1.05-1.61c-.192-.49-.419-1.242-.49-2.608-.053-1.47-.071-1.924-.071-5.651 0-3.729.019-4.184.071-5.671.071-1.365.297-2.116.49-2.606.245-.665.559-1.12 1.05-1.611.489-.489.945-.804 1.609-1.048.49-.194 1.226-.421 2.591-.491 1.487-.053 1.925-.07 5.669-.07zm0 4.291A7.188 7.188 0 006.811 14 7.188 7.188 0 0014 21.189 7.188 7.188 0 0021.189 14 7.188 7.188 0 0014 6.811zm0 11.856c-2.578 0-4.667-2.088-4.667-4.667S11.421 9.333 14 9.333s4.667 2.088 4.667 4.667-2.088 4.667-4.667 4.667zm9.154-12.14a1.681 1.681 0 01-3.36 0 1.68 1.68 0 013.36 0z" />
        </symbol>
        <symbol id="icon-viber" viewBox="0 0 28 28">
            <path fill="var(--color2, #665cac)"
                d="M13.298.002c-2.246.03-7.078.399-9.781 2.876C1.51 4.873.809 7.814.727 11.457c-.07 3.628-.152 10.442 6.417 12.298v2.823s-.044 1.132.702 1.365c.922.292 1.447-.582 2.322-1.515l1.633-1.843c4.492.373 7.933-.489 8.33-.617.91-.292 6.044-.946 6.885-7.761.863-7.036-.42-11.469-2.73-13.476l-.012-.002c-.7-.642-3.5-2.683-9.765-2.707 0 0-.462-.029-1.211-.019zm.078 1.98c.636-.004 1.027.023 1.027.023 5.297.012 7.829 1.61 8.425 2.147 1.948 1.667 2.949 5.665 2.217 11.541-.7 5.693-4.865 6.055-5.635 6.3-.327.105-3.36.852-7.177.607 0 0-2.845 3.431-3.732 4.318-.14.152-.303.198-.408.175-.152-.035-.198-.222-.187-.478l.023-4.689c-5.566-1.54-5.239-7.352-5.181-10.386.07-3.033.642-5.521 2.333-7.201 2.283-2.065 6.388-2.345 8.296-2.357zm.42 3.034h-.001a.349.349 0 00-.349.349c0 .193.157.35.35.35l.125-.001c1.78 0 3.395.708 4.578 1.858l-.002-.002c1.272 1.237 1.891 2.893 1.914 5.063 0 .193.157.35.35.35v-.011a.35.35 0 00.35-.35 7.501 7.501 0 00-2.113-5.555l.002.002c-1.388-1.353-3.141-2.053-5.205-2.053zm-4.613.805a1.105 1.105 0 00-.722.143l.005-.003h-.014c-.478.28-.919.63-1.339 1.097-.315.373-.491.746-.538 1.107a1.466 1.466 0 00.061.642l-.003-.01.023.012c.4 1.164.873 2.166 1.44 3.105l-.04-.072a18.02 18.02 0 002.714 3.707l-.007-.008.035.047.047.035.07.07a18.225 18.225 0 003.619 2.671l.091.047c1.54.84 2.476 1.237 3.036 1.4v.012c.163.047.313.07.464.07.499-.037.944-.24 1.287-.552l-.002.002a5.26 5.26 0 001.085-1.339v-.012c.268-.502.175-.981-.21-1.308a15.898 15.898 0 00-2.434-1.756l-.075-.041c-.595-.327-1.202-.128-1.447.198l-.525.664c-.268.327-.758.28-.758.28l-.014.012c-3.64-.933-4.608-4.619-4.608-4.619s-.047-.502.292-.758l.653-.525c.315-.257.537-.863.198-1.458a15.905 15.905 0 00-1.812-2.526l.015.018a.983.983 0 00-.582-.349l-.006-.001zm5.218 1.038a.35.35 0 00.001.7h.001A4.4 4.4 0 0117.494 8.9l.001.001a4.066 4.066 0 011.049 3.01l.001-.012a.35.35 0 00.35.349l.012.014a.35.35 0 00.35-.35v-.001c.035-1.388-.397-2.555-1.248-3.488s-2.042-1.458-3.558-1.563l-.024-.001-.026.001h.001zm.572 1.889h-.011a.357.357 0 00-.011.713h.001c1.155.058 1.715.642 1.785 1.843a.35.35 0 00.35.338h.012a.35.35 0 00.339-.35l-.001-.025v.001c-.082-1.563-.933-2.44-2.45-2.521h-.014z" />
        </symbol>
        <symbol id="icon-gmail" viewBox="0 0 32 32">
            <path fill="var(--color3, #d14836)"
                d="M32 6v20c0 1.133-.867 2-2 2h-2V9.849l-12 8.617L4 9.849V28H2c-1.135 0-2-.867-2-2V6c0-.567.216-1.067.575-1.424A1.98 1.98 0 012 4h.667L16 13.667 29.333 4H30c.567 0 1.067.216 1.425.576.36.357.575.857.575 1.424z" />
        </symbol>
        <symbol id="icon-telegram" viewBox="0 0 32 32">
            <path fill="var(--color4, #2ca5e0)"
                d="M31.88 5.053l-4.813 22.733c-.333 1.613-1.307 2-2.667 1.253l-7.333-5.427-3.547 3.427c-.4.4-.733.747-1.467.747-.96 0-.8-.36-1.12-1.267L8.4 18.266l-7.267-2.267c-1.573-.467-1.587-1.547.347-2.333L29.827 2.733c1.293-.573 2.533.32 2.053 2.32z" />
        </symbol>
        <symbol id="icon-instagram" viewBox="0 0 32 32">
            <path fill="var(--color1, #e4405f)"
                d="M16 0c-4.347 0-4.889.02-6.596.096C7.7.176 6.54.444 5.52.84c-1.052.408-1.945.956-2.835 1.845S1.246 4.466.84 5.52C.444 6.54.175 7.7.096 9.404.016 11.111 0 11.653 0 16s.02 4.889.096 6.596c.08 1.703.348 2.864.744 3.884a7.854 7.854 0 001.845 2.835A7.807 7.807 0 005.52 31.16c1.021.395 2.181.665 3.884.744 1.707.08 2.249.096 6.596.096s4.889-.02 6.596-.096c1.703-.08 2.864-.349 3.884-.744a7.867 7.867 0 002.835-1.845 7.799 7.799 0 001.845-2.835c.395-1.02.665-2.181.744-3.884.08-1.707.096-2.249.096-6.596s-.02-4.889-.096-6.596c-.08-1.703-.349-2.865-.744-3.884a7.859 7.859 0 00-1.845-2.835A7.786 7.786 0 0026.48.84C25.46.444 24.299.175 22.596.096 20.889.016 20.347 0 16 0zm0 2.88c4.271 0 4.78.021 6.467.095 1.56.073 2.407.332 2.969.553.749.289 1.28.636 1.843 1.195a4.95 4.95 0 011.195 1.841c.219.563.48 1.409.551 2.969.076 1.688.093 2.195.093 6.467s-.02 4.78-.099 6.467c-.081 1.56-.341 2.407-.561 2.969-.299.749-.639 1.28-1.199 1.843a5.002 5.002 0 01-1.84 1.195c-.56.219-1.42.48-2.98.551-1.699.076-2.199.093-6.479.093-4.281 0-4.781-.02-6.479-.099-1.561-.081-2.421-.341-2.981-.561-.759-.299-1.28-.639-1.839-1.199a4.867 4.867 0 01-1.2-1.84c-.22-.56-.479-1.42-.56-2.98-.06-1.68-.081-2.199-.081-6.459 0-4.261.021-4.781.081-6.481.081-1.56.34-2.419.56-2.979.28-.76.639-1.28 1.2-1.841.559-.559 1.08-.919 1.839-1.197.56-.221 1.401-.481 2.961-.561 1.7-.06 2.2-.08 6.479-.08zm0 4.904A8.215 8.215 0 007.784 16c0 4.54 3.68 8.216 8.216 8.216 4.54 0 8.216-3.68 8.216-8.216 0-4.54-3.68-8.216-8.216-8.216zm0 13.549c-2.947 0-5.333-2.387-5.333-5.333s2.387-5.333 5.333-5.333 5.333 2.387 5.333 5.333-2.387 5.333-5.333 5.333zM26.461 7.46a1.921 1.921 0 01-3.84 0 1.92 1.92 0 013.84 0z" />
        </symbol>
        <symbol id="icon-viber" viewBox="0 0 32 32">
            <path fill="var(--color2, #665cac)"
                d="M15.197.003C12.63.038 7.108.459 4.018 3.29 1.725 5.57.923 8.931.83 13.094.75 17.241.657 25.027 8.163 27.149v3.227s-.051 1.293.803 1.56c1.053.333 1.653-.665 2.653-1.732l1.867-2.107c5.133.427 9.067-.559 9.52-.705 1.04-.333 6.908-1.081 7.868-8.869.987-8.041-.48-13.108-3.12-15.401l-.013-.003c-.8-.733-4-3.067-11.16-3.093 0 0-.528-.033-1.384-.021zm.09 2.262c.727-.004 1.173.027 1.173.027 6.053.013 8.948 1.84 9.628 2.453 2.227 1.905 3.371 6.475 2.533 13.189-.8 6.507-5.56 6.92-6.44 7.2-.373.12-3.84.973-8.203.693 0 0-3.252 3.921-4.265 4.935-.16.173-.347.227-.467.2-.173-.04-.227-.253-.213-.547l.027-5.359c-6.361-1.76-5.988-8.403-5.921-11.869.08-3.467.733-6.309 2.667-8.229 2.609-2.36 7.3-2.68 9.481-2.693zm.48 3.467h-.001a.4.4 0 00.001.799l.143-.001c2.034 0 3.88.809 5.232 2.123l-.002-.002c1.453 1.413 2.161 3.307 2.188 5.787a.4.4 0 00.4.4v-.012a.4.4 0 00.4-.4 8.575 8.575 0 00-2.415-6.349l.002.002c-1.587-1.547-3.589-2.347-5.948-2.347zm-5.272.92a1.263 1.263 0 00-.826.163l.006-.003h-.016c-.547.32-1.051.72-1.531 1.253-.36.427-.561.852-.615 1.265a1.634 1.634 0 00.07.733l-.003-.012.027.013a18.197 18.197 0 001.646 3.549l-.046-.082a20.684 20.684 0 003.101 4.237l-.008-.009.04.053.053.04.08.08a20.864 20.864 0 004.136 3.053l.104.054c1.76.96 2.829 1.413 3.469 1.6v.013c.187.053.357.08.531.08a2.447 2.447 0 001.471-.631l-.002.002a6.03 6.03 0 001.24-1.531v-.013c.307-.573.2-1.121-.24-1.495a18.139 18.139 0 00-2.781-2.007l-.085-.046c-.68-.373-1.373-.147-1.653.227l-.6.759c-.307.373-.867.32-.867.32l-.016.013c-4.16-1.067-5.267-5.279-5.267-5.279s-.053-.573.333-.867l.747-.6c.36-.293.613-.987.227-1.667a18.073 18.073 0 00-2.071-2.887l.017.02a1.127 1.127 0 00-.665-.399l-.007-.001zm5.964 1.187a.401.401 0 00.001.8h.001a5.027 5.027 0 013.532 1.532l.001.001a4.646 4.646 0 011.199 3.44l.001-.014c.001.22.18.399.4.399l.013.016a.4.4 0 00.4-.4v-.001c.04-1.587-.453-2.92-1.427-3.987s-2.333-1.667-4.067-1.787l-.028-.001-.029.001h.001zm.653 2.158H17.1a.407.407 0 00-.012.815h.001c1.32.067 1.96.733 2.04 2.107a.4.4 0 00.4.387h.013a.4.4 0 00.388-.4l-.001-.028v.001c-.093-1.787-1.067-2.788-2.8-2.881h-.016z" />
        </symbol>
        <symbol id="icon-11111" viewBox="0 0 22 32">
            <path fill="var(--color5, #fe630c)"
                d="M21.666 21.53c0 5.783-4.85 10.47-10.833 10.47S0 27.312 0 21.53c0-5.783 4.85-10.47 10.833-10.47s10.833 4.688 10.833 10.47z" />
            <path fill="var(--color6, #36fe15)"
                d="M8.988 6.62c1.014 1.503 1.27 3.104.572 3.575s-2.086-.366-3.101-1.87c-1.014-1.503-1.27-3.104-.572-3.575s2.086.366 3.101 1.87z" />
            <path fill="var(--color7, #33ff12)"
                d="M14.524 4.71c1.563-2.602 3.457-4.334 4.23-3.869s.133 2.95-1.431 5.552c-1.563 2.602-3.457 4.334-4.23 3.869s-.133-2.95 1.431-5.552z" />
            <path fill="var(--color8, #000)"
                d="M9.264 16.626l.759 1.893.758-1.893h.397v2.32h-.306v-.904l.029-.975-.762 1.879h-.234l-.76-1.874.03.97v.904h-.306v-2.32h.395zm3.116 1.165l.606-1.165h.347l-.8 1.455v.865h-.306v-.865l-.8-1.455h.351l.602 1.165zm-4.823 4.712h1.1v.25H7.25v-2.32h.308v2.07zm2.762-.355h-.972l-.218.606h-.316l.886-2.32h.268l.888 2.32h-.314l-.222-.606zm-.88-.252h.789l-.395-1.085-.394 1.085zm1.727.858v-2.32h.655c.202 0 .38.045.535.134s.275.216.359.381c.085.165.128.354.129.567v.148c0 .219-.043.411-.128.575a.878.878 0 01-.362.379 1.116 1.116 0 01-.547.135h-.642zm.306-2.069v1.818h.322c.236 0 .419-.073.55-.22.132-.147.198-.355.198-.626v-.135c0-.263-.062-.468-.186-.613-.123-.147-.299-.221-.526-.223h-.357zm2.473.913l.606-1.165h.347l-.8 1.455v.865h-.306v-.865l-.8-1.455h.351l.602 1.165zm-6.012 3.929c-.262-.075-.454-.168-.574-.277a.533.533 0 01-.178-.408c0-.183.073-.334.218-.453.147-.12.337-.18.57-.18.159 0 .301.031.425.092a.702.702 0 01.29.255.648.648 0 01.104.355H8.48c0-.14-.045-.25-.134-.33-.089-.081-.215-.121-.378-.121a.558.558 0 00-.354.1.331.331 0 00-.126.276c0 .095.04.175.12.241.081.065.217.124.41.178.193.054.344.114.453.18.109.065.19.141.242.228.053.087.08.19.08.308a.545.545 0 01-.22.453c-.147.113-.343.169-.588.169-.159 0-.308-.03-.446-.091a.765.765 0 01-.32-.252.619.619 0 01-.112-.362h.308c0 .14.052.251.155.333a.66.66 0 00.416.121c.161 0 .285-.033.371-.099s.129-.156.129-.269a.313.313 0 00-.12-.263c-.08-.063-.224-.124-.433-.185zm1.562.784h1.1v.25H9.188v-2.32h.307v2.07zm1.776.25h-.306v-2.32h.306v2.32zm.957-2.32l.758 1.893.758-1.893h.397v2.32h-.306v-.904l.029-.975-.762 1.879h-.234l-.76-1.874.03.97v.904h-.306v-2.32h.395z" />
        </symbol>
        <symbol id="icon-arrow-up" viewBox="0 0 32 32">
            <path d="M16 1l-15 15h9v16h12v-16h9z"></path>
        </symbol>
        <symbol id="icon-mobile" viewBox="0 0 32 32">
            <path
                d="M23 0H9C7.35 0 6 1.35 6 3v26c0 1.65 1.35 3 3 3h14c1.65 0 3-1.35 3-3V3c0-1.65-1.35-3-3-3zM12 1.5h8v1h-8v-1zM16 30a2 2 0 11-.001-3.999A2 2 0 0116 30zm8-6H8V4h16v20z" />
        </symbol>
        <symbol id="icon-menu" viewBox="0 0 32 32">
            <path d="M2 6h28v6H2zm0 8h28v6H2zm0 8h28v6H2z" />
        </symbol>
        <symbol id="icon-wink" viewBox="0 0 32 32">
            <path
                d="M16 32c8.837 0 16-7.163 16-16S24.837 0 16 0 0 7.163 0 16s7.163 16 16 16zm0-29c7.18 0 13 5.82 13 13s-5.82 13-13 13S3 23.18 3 16 8.82 3 16 3zm.961 19.22c4.383-.866 7.785-2.861 9.014-5.519C25.298 21.95 20.928 26 15.636 26c-3.726 0-6.996-2.009-8.84-5.03 2.2 1.721 6.079 2.056 10.165 1.249zM20 11c0-1.657.895-3 2-3s2 1.343 2 3-.895 3-2 3-2-1.343-2-3zm-9 .609c-1.306 0-2.417.489-2.829 1.172C8.06 12.598 8 11.776 8 11.57c0-.971 1.343-1.758 3-1.758s3 .787 3 1.758c0 .206-.061 1.028-.171 1.211-.412-.683-1.522-1.172-2.829-1.172z" />
        </symbol>
        <symbol id="icon-point-up" viewBox="0 0 32 32">
            <path
                d="M30 19v-5a3.004 3.004 0 00-4.472-2.614 3 3 0 00-4.528-.62 2.987 2.987 0 00-3-.595V3c0-1.654-1.346-3-3-3s-3 1.346-3 3v12.334l-5.501-2.932A3.004 3.004 0 002 15.001c0 .824.327 1.592.922 2.163l.023.022 7.474 6.815H9a1 1 0 00-1 1v6a1 1 0 001 1h20a1 1 0 001-1v-6a1 1 0 00-1-1h-1.382l2.276-4.553c.069-.139.106-.292.106-.447zm-2 8a1 1 0 11-2 0 1 1 0 012 0zm0-8.236L25.382 24H13.387l-9.088-8.286a1.002 1.002 0 011.18-1.592c.017.01.033.02.051.029l7 3.732a1 1 0 001.47-.882v-14c0-.551.449-1 1-1s1 .449 1 1v10a1 1 0 002 0c0-.551.449-1 1-1s1 .449 1 1a1 1 0 002 0c0-.551.449-1 1-1s1 .449 1 1v1a1 1 0 002 0c0-.551.449-1 1-1s1 .449 1 1v4.764z" />
        </symbol>
        <symbol id="icon-circle-right" viewBox="0 0 32 32">
            <path
                d="M16 0c-8.837 0-16 7.163-16 16s7.163 16 16 16 16-7.163 16-16-7.163-16-16-16zM16 29c-7.18 0-13-5.82-13-13s5.82-13 13-13 13 5.82 13 13-5.82 13-13 13z">
            </path>
            <path d="M11.086 22.086l2.829 2.829 8.914-8.914-8.914-8.914-2.828 2.828 6.086 6.086z"></path>
        </symbol>
        <symbol id="icon-checkmark" viewBox="0 0 32 32">
            <path d="M27 4L12 19l-7-7-5 5 12 12L32 9z" />
        </symbol>
    </defs>
</svg>